<svg width="22" height="22" xmlns="http://www.w3.org/2000/svg">

 <g>
  <title>background</title>
  <rect fill="none" id="canvas_background" height="24" width="24" y="-1" x="-1"/>
 </g>
 <g>
  <title>Layer 1</title>
  <g stroke="null" id="svg_1">
   <g stroke="null" id="svg_6">
    <path fill="#f88e36" stroke="null" id="svg_2" d="m8.39357,13.960376l0.885468,3.183289c0.010304,0.038125 0.03263,0.071785 0.062855,0.097202l2.722695,2.264161c0.035378,0.029195 0.078998,0.044651 0.12365,0.044651c0.019234,0 0.037782,-0.002748 0.056673,-0.008587c0.062512,-0.019234 0.110941,-0.068351 0.129145,-0.130862l0.935272,-3.214202c0.681447,0.027478 1.282864,-0.128458 1.777806,-0.468494l1.239243,1.018048c0.078655,0.064229 0.193031,0.057703 0.263442,-0.016143l0.920159,-0.968245c0.035721,-0.037438 0.054612,-0.087929 0.052895,-0.140136c-0.001717,-0.051864 -0.024386,-0.10098 -0.062855,-0.136015l-1.226878,-1.125211c0.104759,-0.285768 0.292637,-0.997783 0.093424,-2.081091l3.153064,-1.151315c0.061481,-0.022326 0.107163,-0.07419 0.121932,-0.137732c0.015113,-0.063542 -0.003435,-0.130176 -0.048429,-0.177575l-2.441392,-2.565042c-0.028508,-0.029882 -0.065259,-0.049803 -0.106133,-0.05736l-3.215919,-0.57497c-0.605196,-0.69965 -1.309312,-1.407544 -2.093456,-2.105477c-4.51527,-4.017924 -8.044778,-4.617624 -9.746677,-4.617624c-0.560201,0 -0.868982,0.068007 -0.882034,0.070755c-0.076594,0.017174 -0.134984,0.078998 -0.148379,0.156279c-0.034347,0.1999 -0.768688,4.963156 5.429933,11.161778c0.008243,0.0079 0.8391,0.813339 2.004497,1.679917zm0.292981,-3.464936c-1.078499,0 -1.952633,-0.874134 -1.952633,-1.952633s0.874134,-1.952633 1.952633,-1.952633s1.952633,0.874134 1.952633,1.952633s-0.874134,1.952633 -1.952633,1.952633z"/>
    <path fill="#f88e36" stroke="null" id="svg_3" d="m16.036144,17.480611c-0.041903,-0.041217 -0.102698,-0.057703 -0.160057,-0.043621c-0.05736,0.014082 -0.103385,0.056329 -0.121932,0.111972l-0.444108,1.319272c-0.021295,0.063199 -0.004122,0.132923 0.043964,0.178948l2.106164,2.013084c0.032286,0.030569 0.074533,0.047742 0.118841,0.047742l0,0l1.775402,0l0,0c0.070068,0 0.132923,-0.04259 0.159371,-0.107163c0.026104,-0.064916 0.010304,-0.139106 -0.039843,-0.187879l-3.437801,-3.332356z"/>
    <path fill="#f88e36" stroke="null" id="svg_4" d="m18.388233,16.40486c-0.03263,-0.034004 -0.077624,-0.105446 -0.124337,-0.105446c-0.001374,0 -0.002748,0 -0.004465,0c-0.048429,0 -0.093768,0.074877 -0.125367,0.111628l-0.763536,0.935615c-0.05839,0.067664 -0.055299,0.168644 0.007213,0.23253l3.403111,3.477644c0.032286,0.032973 0.076594,0.051521 0.122619,0.051521l0,0l0.562606,0l0.171736,0c0.094798,0 0.171736,-0.076938 0.171736,-0.171736l0,-0.82227c0,-0.043964 -0.017174,-0.112658 -0.047399,-0.144601l-3.373916,-3.564886z"/>
    <path fill="#f88e36" stroke="null" id="svg_5" d="m21.757684,16.828016l-2.458909,-2.396741c-0.057016,-0.055986 -0.145288,-0.064573 -0.211578,-0.021982l-1.006714,0.637482c-0.044308,0.028165 -0.073159,0.074533 -0.078655,0.126397s0.012708,0.103728 0.049803,0.14048l3.465623,3.437458c0.032973,0.03263 0.076938,0.049803 0.121245,0.049803c0.021982,0 0.044651,-0.004465 0.065946,-0.013395c0.063542,-0.026447 0.105102,-0.088959 0.105102,-0.15834l0,-1.678543c0,-0.046025 -0.018891,-0.090676 -0.051864,-0.122619z"/>
   </g>
  </g>
 </g>
</svg>